<svg version="1.1" id="Layer_1" xmlns="http://www.w3.org/2000/svg" xmlns:xlink="http://www.w3.org/1999/xlink" x="0px" y="0px"
	 width="100%" viewBox="0 0 1200 1200" enable-background="new 0 0 1200 1200" xml:space="preserve">
<path fill="#47704C" opacity="1.000000" stroke="none" 
	d="
M551.000000,1201.000000 
	C367.333344,1201.000000 184.166672,1201.000000 1.000000,1201.000000 
	C1.000000,801.000000 1.000000,401.000000 1.000000,1.000000 
	C401.000000,1.000000 801.000000,1.000000 1201.000000,1.000000 
	C1201.000000,401.000000 1201.000000,801.000000 1201.000000,1201.000000 
	C984.500000,1201.000000 768.000000,1201.000000 551.000000,1201.000000 
M114.917671,968.931213 
	C117.747581,968.950562 120.578377,969.024170 123.407219,968.977966 
	C129.304352,968.881592 130.060104,968.270264 129.951080,962.242493 
	C129.765625,951.989319 129.316879,941.740845 128.977280,931.445190 
	C129.322281,932.171997 129.776810,932.980042 130.101822,933.837280 
	C133.345291,942.391052 136.500443,950.978943 139.813293,959.505676 
	C143.577560,969.194214 143.636475,969.171326 154.085068,968.991577 
	C160.331573,968.884033 160.959503,968.328247 160.979523,962.063721 
	C161.027405,947.080750 161.001587,932.097534 161.001236,917.114380 
	C161.000946,905.561890 160.322403,905.021362 148.770859,906.008606 
	C145.415405,906.295349 143.942093,907.860535 144.050034,911.081238 
	C144.267029,917.554382 144.470078,924.028931 144.789185,930.497375 
	C144.985901,934.485291 145.386337,938.463135 145.695297,942.445557 
	C142.201599,935.642883 139.797409,928.587463 137.001709,921.690796 
	C129.572296,903.363342 135.093643,906.116089 113.541527,906.797058 
	C113.370308,907.940918 113.051918,909.084534 113.049873,910.228699 
	C113.017387,928.348022 113.003853,946.467468 113.065765,964.586670 
	C113.070663,966.020508 113.663620,967.452393 114.917671,968.931213 
M392.483002,968.219055 
	C392.646271,967.072571 392.950134,965.926392 392.951874,964.779602 
	C392.982086,944.987122 392.994293,925.194519 392.936279,905.402161 
	C392.932068,903.963806 392.358582,902.527222 391.109589,901.037048 
	C388.281067,901.013306 385.452332,900.953308 382.624115,900.972900 
	C375.447052,901.022766 375.022705,901.451294 374.970703,908.679504 
	C374.941864,912.685913 374.965515,916.692810 374.965515,921.122131 
	C372.756592,920.712219 371.914001,920.690063 371.177856,920.398743 
	C362.711823,917.049072 355.869659,919.797607 350.144409,926.162170 
	C343.532532,933.512451 342.955170,942.507629 344.415253,951.565735 
	C347.031433,967.796448 359.100861,973.971558 374.024109,967.195923 
	C374.879150,966.807678 376.334076,966.253784 376.756622,966.627930 
	C381.405029,970.742432 386.919159,968.474792 392.483002,968.219055 
M332.048035,515.652283 
	C299.330536,589.486816 266.613007,663.321289 233.521103,738.000610 
	C236.853867,738.000610 239.146332,738.000549 241.438812,738.000549 
	C328.935760,738.000549 416.432678,738.000549 503.929626,738.000549 
	C519.760559,738.000549 519.577759,737.920105 525.971497,723.401978 
	C546.173157,677.530640 566.518433,631.722534 586.825195,585.897461 
	C589.311646,580.286316 591.901550,574.721008 594.904236,568.122131 
	C599.260986,577.976746 603.065674,586.618713 606.899231,595.247925 
	C627.252380,641.063293 647.669128,686.850708 667.869629,732.733337 
	C669.588013,736.636475 671.430115,738.117676 675.836731,738.111023 
	C771.833130,737.965698 867.829834,738.000305 963.826477,738.000305 
	C965.756287,738.000305 967.686035,738.000305 970.912292,738.000305 
	C895.469971,567.923096 820.502686,398.916870 744.925964,228.536530 
	C694.600525,342.006470 644.969421,453.910797 594.816223,566.992432 
	C547.136902,459.510437 499.967468,353.177795 452.259644,245.631546 
	C450.715576,248.644806 449.833832,250.178558 449.120117,251.786850 
	C440.768494,270.606903 432.452057,289.442596 424.107117,308.265625 
	C404.726624,351.980591 385.349182,395.696869 365.943634,439.400726 
	C354.758362,464.591522 343.520721,489.759064 332.048035,515.652283 
M225.998154,946.499939 
	C225.998184,950.331665 225.997208,954.163452 225.998489,957.995178 
	C226.002319,969.415588 226.073242,969.341248 237.352356,969.047119 
	C241.527420,968.938232 242.832382,967.246948 242.737030,963.281677 
	C242.553543,955.651855 242.630096,948.012390 242.780685,940.380493 
	C242.817993,938.489746 243.551636,936.612732 243.965210,934.729370 
	C244.607407,934.748657 245.249588,934.767944 245.891785,934.787231 
	C246.256485,936.542847 246.906860,938.293640 246.936264,940.054871 
	C247.061356,947.549866 247.158981,955.052185 246.953857,962.543274 
	C246.825211,967.242615 248.631195,969.103394 253.399704,969.078674 
	C257.974640,969.054993 260.184814,967.635254 260.046387,962.744690 
	C259.834412,955.254272 259.928223,947.750488 260.105865,940.257385 
	C260.147705,938.491394 261.041260,936.745605 261.543030,934.990479 
	C262.183441,935.108826 262.823853,935.227173 263.464264,935.345459 
	C263.640594,937.225769 263.952026,939.104797 263.969482,940.986633 
	C264.038971,948.482971 264.015747,955.980164 264.029297,963.477051 
	C264.034149,966.167847 264.480377,968.668579 267.844360,968.835571 
	C270.998444,968.992004 274.225128,969.200378 277.302429,968.684937 
	C278.637177,968.461243 280.706757,966.468323 280.693207,965.299194 
	C280.548889,952.840393 280.840607,940.293030 279.389709,927.960876 
	C278.341949,919.054871 269.518616,916.528381 262.272461,921.955933 
	C261.253876,922.718933 260.204895,923.441467 260.169525,923.466797 
	C256.220978,921.760437 253.113632,919.301453 250.108261,919.420349 
	C246.842819,919.549561 243.672241,922.075867 240.368210,923.599426 
	C238.010880,920.320496 233.145569,918.762878 228.866348,920.302551 
	C224.929810,921.718994 226.127808,925.208740 226.049728,928.008362 
	C225.887238,933.834839 225.999069,939.669006 225.998154,946.499939 
M208.297104,966.939819 
	C217.585495,961.335754 220.871155,952.806519 220.276886,942.379395 
	C219.618378,930.824829 212.286789,922.294800 200.699310,919.616272 
	C189.891006,917.117859 178.231049,922.206604 172.988525,931.710083 
	C167.680725,941.331909 169.020905,954.314392 176.116150,962.009521 
	C184.238907,970.819092 195.616669,972.721130 208.297104,966.939819 
M296.622772,965.955322 
	C306.142456,971.984009 315.902374,971.984863 325.322021,966.181641 
	C334.985840,960.227844 337.362244,950.725891 336.046295,940.121094 
	C334.848877,930.471619 329.147308,924.088623 320.251068,920.655029 
	C308.752655,916.217102 295.319611,920.865906 289.344360,931.090759 
	C282.569122,942.684631 285.247986,956.509705 296.622772,965.955322 
M951.213562,919.023743 
	C933.752075,918.814514 923.207703,929.760803 923.987061,947.288208 
	C924.423401,957.102783 931.431030,966.098083 941.021790,969.154968 
	C951.159424,972.386169 963.074463,968.794922 969.115234,961.125000 
	C978.771667,948.864380 976.645325,922.814941 951.213562,919.023743 
M738.978394,930.642395 
	C733.601135,921.463806 724.558716,917.346619 713.954102,919.248108 
	C703.637268,921.097961 695.359131,928.838989 693.315308,938.547913 
	C690.946411,949.800476 694.865051,960.536743 703.467407,965.766663 
	C713.549988,971.896484 724.064514,971.406677 734.648315,967.248901 
	C737.002258,966.324158 740.406555,965.340759 738.199036,961.688049 
	C736.447998,958.790771 736.183777,953.874451 730.265259,955.596252 
	C726.531616,956.682373 722.400574,956.822937 718.471619,956.689148 
	C715.115356,956.574890 712.168823,955.015015 711.169067,950.486694 
	C713.272827,950.311890 715.019836,950.057556 716.769043,950.041077 
	C722.930481,949.983032 729.099854,949.820923 735.252380,950.058289 
	C740.116821,950.245972 742.189941,947.700623 741.824890,943.440186 
	C741.475647,939.364807 740.174622,935.370911 738.978394,930.642395 
M795.036682,927.582031 
	C793.801636,926.259277 792.702087,924.769348 791.309753,923.640442 
	C780.971069,915.257324 762.347595,919.827087 755.419800,924.494507 
	C754.595581,925.049805 753.973999,926.763062 754.142944,927.794739 
	C755.174500,934.092896 758.567810,936.132935 764.510376,934.333862 
	C765.939758,933.901184 767.398010,933.257263 768.845459,933.250671 
	C772.601746,933.233398 776.763245,931.737366 780.609314,936.324158 
	C777.975647,937.000183 776.045227,937.506714 774.109131,937.990601 
	C769.611694,939.114685 764.962158,939.827454 760.647034,941.437805 
	C753.896423,943.956970 750.043030,951.192200 751.272705,957.852600 
	C752.644043,965.280762 758.226013,970.330322 766.076416,969.819397 
	C771.690430,969.454102 777.201721,967.510803 783.573914,966.089905 
	C783.306213,965.775452 783.747864,966.812134 784.341675,966.908264 
	C788.417480,967.567993 792.555359,968.486877 796.599976,968.218262 
	C797.543945,968.155518 798.772766,963.874207 798.888367,961.486267 
	C799.201660,955.015015 799.424622,948.478271 798.836609,942.044922 
	C798.408691,937.362427 796.633667,932.802979 795.036682,927.582031 
M984.237122,965.901855 
	C986.541687,971.067261 991.162476,968.424622 994.787537,968.927368 
	C999.215576,969.541382 1001.142151,967.379517 1001.033264,962.851379 
	C1000.861145,955.690918 1000.928650,948.520752 1001.072510,941.358215 
	C1001.168762,936.563232 1003.631409,934.205872 1008.088684,934.122498 
	C1012.918396,934.032166 1013.882507,937.221497 1013.937805,941.065125 
	C1014.019348,946.729492 1013.991455,952.395630 1013.996521,958.060974 
	C1014.006592,969.404419 1014.475586,969.836365 1025.920410,968.955566 
	C1026.086548,968.942749 1026.253174,968.932068 1026.419556,968.930481 
	C1029.534790,968.901001 1030.954468,967.232422 1030.950439,964.216125 
	C1030.937012,954.052551 1031.325073,943.867249 1030.787842,933.731201 
	C1030.192627,922.501831 1020.586975,916.403931 1009.845947,919.999390 
	C1006.428589,921.143311 1003.235107,922.955750 999.887146,924.485962 
	C999.530640,924.026794 999.218323,923.657104 998.941345,923.262695 
	C996.851440,920.286316 990.660889,918.311707 986.981506,920.531921 
	C985.221130,921.594055 984.178772,925.107300 984.131653,927.536133 
	C983.889404,940.027222 984.075928,952.526611 984.237122,965.901855 
M493.001831,949.505676 
	C493.012024,946.176819 493.097168,942.846069 493.012421,939.519592 
	C492.917786,935.802917 494.492767,933.896240 498.338074,934.018982 
	C500.164886,934.077271 502.122955,934.333801 503.790344,933.790710 
	C505.285095,933.303772 507.230499,932.089844 507.653076,930.772095 
	C510.001007,923.450439 507.511444,920.140137 499.992310,919.994629 
	C499.160339,919.978516 498.224304,920.196960 497.518646,919.889160 
	C496.143219,919.289185 494.896790,918.393555 493.596924,917.620422 
	C494.634766,916.472107 495.552032,914.506958 496.733704,914.332458 
	C499.949219,913.857666 503.296692,913.900940 506.555298,914.174561 
	C512.641174,914.685547 511.003448,909.561951 512.222839,906.625793 
	C513.523132,903.494995 511.626587,901.519165 508.826233,901.358276 
	C502.428955,900.991028 495.878479,900.369812 489.618561,901.334045 
	C483.028290,902.349243 477.965363,906.824890 476.584991,913.614258 
	C475.582062,918.547424 472.957306,920.383911 468.509094,920.593811 
	C462.534424,920.875671 462.990906,925.056458 463.023712,929.173340 
	C463.060272,933.758972 466.115601,934.128052 469.502625,934.000244 
	C473.651825,933.843689 475.084686,935.968872 475.007629,939.850952 
	C474.895294,945.507629 474.959625,951.168762 475.004639,956.827515 
	C475.105591,969.525940 473.167511,969.187744 488.160767,968.959717 
	C491.506012,968.908813 492.978577,967.240906 492.963989,963.984009 
	C492.943848,959.490356 492.986237,954.996399 493.001831,949.505676 
M616.931885,968.754150 
	C619.676575,967.214233 622.513000,965.811157 625.118530,964.063660 
	C626.092468,963.410461 627.368652,961.407104 627.072998,960.952881 
	C625.107300,957.933228 623.017212,954.872498 620.368347,952.491943 
	C619.540527,951.747986 616.710022,952.727173 615.059326,953.488159 
	C606.203979,957.570435 597.848755,954.251099 595.412109,944.899109 
	C594.362610,940.870972 594.134888,936.257263 594.940247,932.187927 
	C597.238770,920.573914 604.677551,916.985596 615.564758,921.205627 
	C617.059143,921.784851 619.488953,920.995178 621.040222,920.082275 
	C622.514465,919.214600 623.300354,917.252319 624.574646,915.953552 
	C626.927551,913.555420 626.513794,911.775208 623.853455,909.901062 
	C614.912537,903.602478 605.221741,902.618164 595.473206,906.955200 
	C578.140259,914.666443 574.142395,929.881165 577.995117,947.570251 
	C581.934631,965.657898 597.022705,973.465637 616.931885,968.754150 
M523.745605,937.793640 
	C527.414917,946.352234 531.183105,954.870300 534.718323,963.483948 
	C537.018616,969.088562 534.773743,972.772827 528.725586,973.856995 
	C527.744934,974.032776 526.711182,973.973022 525.758362,974.230713 
	C523.146912,974.936951 519.987122,980.992920 521.259216,984.282593 
	C521.816223,985.723022 524.664673,986.890259 526.585632,987.088928 
	C537.514465,988.219116 545.527710,983.501282 549.658752,973.486206 
	C556.314819,957.349365 562.403931,940.977905 568.634338,924.667969 
	C569.044006,923.595398 569.117065,921.805786 568.496277,921.032166 
	C566.121399,918.072815 554.555420,920.291931 553.240417,923.945435 
	C551.608459,928.479614 550.286743,933.125427 548.829407,937.722534 
	C547.428650,942.141479 546.025818,946.559814 544.296631,952.009888 
	C541.365356,943.667480 538.991943,936.593933 536.396729,929.602600 
	C532.689087,919.614441 532.619751,919.640320 521.834595,920.009094 
	C521.501892,920.020508 521.168823,920.034241 520.836121,920.030029 
	C517.171204,919.983398 516.511658,921.706543 517.936890,924.802307 
	C519.814636,928.881104 521.612610,932.996643 523.745605,937.793640 
M814.935120,934.011536 
	C818.442993,933.627563 819.585327,935.322205 819.559937,938.683594 
	C819.523682,943.486511 819.696960,948.307739 820.103882,953.093689 
	C820.846802,961.830200 826.363220,968.385254 834.924255,969.503845 
	C840.438416,970.224365 846.165222,969.541321 851.779053,969.198853 
	C855.616760,968.964722 857.960999,967.386658 856.798950,962.742310 
	C855.164246,956.209045 854.859314,955.760010 849.229309,956.656189 
	C840.712830,958.011902 837.053711,954.974976 837.014648,946.419983 
	C836.951721,932.647644 836.331726,933.940125 849.411133,934.050293 
	C853.967468,934.088623 856.153259,932.642700 856.057495,927.749207 
	C855.921631,920.801880 855.427551,920.070129 848.417114,920.003418 
	C846.753357,919.987549 845.080017,919.873718 843.427429,920.007263 
	C838.706970,920.388550 836.781921,918.301880 836.915833,913.575073 
	C836.977600,911.394714 836.734985,908.491577 835.396545,907.121826 
	C831.633118,903.270508 822.176392,906.561035 821.641052,911.951599 
	C821.097290,917.427734 819.237976,920.447388 813.265259,920.529358 
	C807.800842,920.604187 807.987427,924.803833 807.992676,928.830505 
	C807.998413,933.208252 810.502380,934.180176 814.935120,934.011536 
M1087.507568,947.320312 
	C1083.430176,944.648438 1079.552979,941.567871 1075.209229,939.439819 
	C1071.994507,937.864990 1068.129639,937.666565 1064.644531,936.568604 
	C1063.409546,936.179504 1062.441162,934.944519 1061.351074,934.095642 
	C1062.690063,933.413391 1064.043701,932.135376 1065.364990,932.168152 
	C1068.480591,932.245422 1071.680908,932.601196 1074.666992,933.465942 
	C1081.670532,935.494141 1081.996826,935.447266 1085.965088,929.468079 
	C1087.610229,926.989014 1087.446899,925.366882 1084.710205,923.849243 
	C1077.155273,919.659851 1069.135864,917.999756 1060.635620,919.446838 
	C1057.562500,919.969971 1054.490967,921.030396 1051.665649,922.367188 
	C1046.433594,924.842834 1043.317505,929.228638 1043.384277,935.015991 
	C1043.448975,940.638184 1046.768799,944.961304 1051.735229,947.131958 
	C1056.869629,949.376099 1062.505615,950.448914 1067.828613,952.302673 
	C1069.154785,952.764587 1070.120483,954.260925 1071.251953,955.281860 
	C1069.916260,956.107971 1068.492432,957.748291 1067.260620,957.614929 
	C1062.670776,957.118164 1057.994995,956.496399 1053.628052,955.072937 
	C1046.834106,952.858154 1046.616333,952.762207 1042.630371,958.934082 
	C1040.800171,961.768005 1040.765015,963.578003 1044.180298,965.111084 
	C1053.121704,969.124512 1062.154053,971.743958 1072.173462,969.904358 
	C1085.155151,967.520813 1091.415283,959.073853 1087.507568,947.320312 
M640.932556,967.438232 
	C644.286377,967.952393 647.626892,968.591675 650.997314,968.948792 
	C655.179810,969.392029 657.169617,967.462952 657.016541,963.140686 
	C656.863342,958.813416 656.970886,954.475464 657.015381,950.142761 
	C657.123657,939.598450 664.175842,933.271301 674.823975,934.132324 
	C680.460999,934.588135 682.775513,931.866333 683.103027,923.861511 
	C683.331909,918.267883 678.752686,919.281067 675.590454,919.112732 
	C667.554138,918.684998 661.251160,922.421021 655.831909,928.888000 
	C655.144104,926.560486 654.784729,924.803955 654.114075,923.175537 
	C652.049316,918.162109 647.590271,920.131348 644.111511,920.316284 
	C642.705383,920.391052 640.283691,922.861816 640.267944,924.264160 
	C640.109009,938.410889 640.353699,952.562195 640.932556,967.438232 
M441.001831,933.522827 
	C440.980255,930.694824 440.947205,927.866760 440.940155,925.038757 
	C440.932037,921.793152 439.375641,920.072510 436.077118,920.069824 
	C427.260162,920.062622 418.439911,919.944702 409.629578,920.185303 
	C408.173737,920.225098 405.988831,921.529907 405.457581,922.800598 
	C402.594421,929.648926 405.642395,933.943604 413.047058,933.999573 
	C414.544312,934.010925 416.043854,934.081116 417.538330,934.022339 
	C421.293579,933.874695 423.038330,935.593201 422.987793,939.394043 
	C422.908203,945.382080 422.993347,951.372253 422.996826,957.361511 
	C423.003876,969.506409 422.997101,969.377563 435.189026,969.046753 
	C439.514496,968.929321 441.080231,967.127319 441.024872,962.964966 
	C440.898773,953.483643 440.995605,943.999329 441.001831,933.522827 
M905.001465,931.550659 
	C904.980347,929.388000 904.944702,927.225403 904.941406,925.062744 
	C904.936401,921.828430 903.411011,920.075806 900.100769,920.072144 
	C891.283447,920.062500 882.462891,919.944702 873.651978,920.182800 
	C872.191223,920.222351 870.001343,921.511292 869.464111,922.779968 
	C866.579224,929.592957 869.648743,933.943481 877.025635,933.999084 
	C878.356628,934.009155 879.692627,934.091675 881.017700,934.006714 
	C885.224731,933.736694 887.128540,935.575928 887.016541,939.872864 
	C886.865051,945.691895 886.995361,951.518250 886.997559,957.341431 
	C887.002136,969.497864 886.996826,969.369995 899.169983,969.046631 
	C903.481201,968.932129 905.075745,967.160828 905.024963,962.983521 
	C904.901733,952.836060 904.995300,942.685974 905.001465,931.550659 
M892.310547,894.480591 
	C886.093811,896.953918 883.648132,901.533447 885.444641,907.337097 
	C886.914917,912.086731 892.577209,914.936462 898.007202,913.659546 
	C903.926270,912.267639 906.881104,907.740356 905.787781,901.738708 
	C904.805237,896.345276 900.622620,893.890442 892.310547,894.480591 
M436.104645,912.886353 
	C441.662354,909.630249 443.486511,904.803284 441.122620,899.607971 
	C439.083496,895.126465 433.375702,892.980225 427.888672,894.631836 
	C422.685455,896.197998 420.136810,900.664124 421.216583,906.323547 
	C422.345337,912.239563 427.822723,914.893250 436.104645,912.886353 
z"/>
<path fill="#4C6DE2" opacity="1.000000" stroke="none" 
	d="
M332.177368,515.294678 
	C343.520721,489.759064 354.758362,464.591522 365.943634,439.400726 
	C385.349182,395.696869 404.726624,351.980591 424.107117,308.265625 
	C432.452057,289.442596 440.768494,270.606903 449.120117,251.786850 
	C449.833832,250.178558 450.715576,248.644806 452.259644,245.631546 
	C499.967468,353.177795 547.136902,459.510437 594.816223,566.992432 
	C644.969421,453.910797 694.600525,342.006470 744.925964,228.536530 
	C820.502686,398.916870 895.469971,567.923096 970.912292,738.000305 
	C967.686035,738.000305 965.756287,738.000305 963.826477,738.000305 
	C867.829834,738.000305 771.833130,737.965698 675.836731,738.111023 
	C671.430115,738.117676 669.588013,736.636475 667.869629,732.733337 
	C647.669128,686.850708 627.252380,641.063293 606.899231,595.247925 
	C603.065674,586.618713 599.260986,577.976746 594.904236,568.122131 
	C591.901550,574.721008 589.311646,580.286316 586.825195,585.897461 
	C566.518433,631.722534 546.173157,677.530640 525.971497,723.401978 
	C519.577759,737.920105 519.760559,738.000549 503.929626,738.000549 
	C416.432678,738.000549 328.935760,738.000549 241.438812,738.000549 
	C239.146332,738.000549 236.853867,738.000610 233.521103,738.000610 
	C266.613007,663.321289 299.330536,589.486816 332.177368,515.294678 
z"/>
<path fill="#3A3D39" opacity="1.000000" stroke="none" 
	d="
M392.047882,968.909607 
	C386.919159,968.474792 381.405029,970.742432 376.756622,966.627930 
	C376.334076,966.253784 374.879150,966.807678 374.024109,967.195923 
	C359.100861,973.971558 347.031433,967.796448 344.415253,951.565735 
	C342.955170,942.507629 343.532532,933.512451 350.144409,926.162170 
	C355.869659,919.797607 362.711823,917.049072 371.177856,920.398743 
	C371.914001,920.690063 372.756592,920.712219 374.965515,921.122131 
	C374.965515,916.692810 374.941864,912.685913 374.970703,908.679504 
	C375.022705,901.451294 375.447052,901.022766 382.624115,900.972900 
	C385.452332,900.953308 388.281067,901.013306 391.572235,901.524353 
	C392.039215,924.310974 392.043549,946.610291 392.047882,968.909607 
z"/>
<path fill="#393737" opacity="1.000000" stroke="none" 
	d="
M113.983284,906.114807 
	C135.093643,906.116089 129.572296,903.363342 137.001709,921.690796 
	C139.797409,928.587463 142.201599,935.642883 145.695297,942.445557 
	C145.386337,938.463135 144.985901,934.485291 144.789185,930.497375 
	C144.470078,924.028931 144.267029,917.554382 144.050034,911.081238 
	C143.942093,907.860535 145.415405,906.295349 148.770859,906.008606 
	C160.322403,905.021362 161.000946,905.561890 161.001236,917.114380 
	C161.001587,932.097534 161.027405,947.080750 160.979523,962.063721 
	C160.959503,968.328247 160.331573,968.884033 154.085068,968.991577 
	C143.636475,969.171326 143.577560,969.194214 139.813293,959.505676 
	C136.500443,950.978943 133.345291,942.391052 130.101822,933.837280 
	C129.776810,932.980042 129.322281,932.171997 128.977280,931.445190 
	C129.316879,941.740845 129.765625,951.989319 129.951080,962.242493 
	C130.060104,968.270264 129.304352,968.881592 123.407219,968.977966 
	C120.578377,969.024170 117.747581,968.950562 114.454712,968.449768 
	C113.988922,947.350464 113.986107,926.732666 113.983284,906.114807 
z"/>
<path fill="#393737" opacity="1.000000" stroke="none" 
	d="
M225.998154,946.000000 
	C225.999069,939.669006 225.887238,933.834839 226.049728,928.008362 
	C226.127808,925.208740 224.929810,921.718994 228.866348,920.302551 
	C233.145569,918.762878 238.010880,920.320496 240.368210,923.599426 
	C243.672241,922.075867 246.842819,919.549561 250.108261,919.420349 
	C253.113632,919.301453 256.220978,921.760437 260.169525,923.466797 
	C260.204895,923.441467 261.253876,922.718933 262.272461,921.955933 
	C269.518616,916.528381 278.341949,919.054871 279.389709,927.960876 
	C280.840607,940.293030 280.548889,952.840393 280.693207,965.299194 
	C280.706757,966.468323 278.637177,968.461243 277.302429,968.684937 
	C274.225128,969.200378 270.998444,968.992004 267.844360,968.835571 
	C264.480377,968.668579 264.034149,966.167847 264.029297,963.477051 
	C264.015747,955.980164 264.038971,948.482971 263.969482,940.986633 
	C263.952026,939.104797 263.640594,937.225769 263.464264,935.345459 
	C262.823853,935.227173 262.183441,935.108826 261.543030,934.990479 
	C261.041260,936.745605 260.147705,938.491394 260.105865,940.257385 
	C259.928223,947.750488 259.834412,955.254272 260.046387,962.744690 
	C260.184814,967.635254 257.974640,969.054993 253.399704,969.078674 
	C248.631195,969.103394 246.825211,967.242615 246.953857,962.543274 
	C247.158981,955.052185 247.061356,947.549866 246.936264,940.054871 
	C246.906860,938.293640 246.256485,936.542847 245.891785,934.787231 
	C245.249588,934.767944 244.607407,934.748657 243.965210,934.729370 
	C243.551636,936.612732 242.817993,938.489746 242.780685,940.380493 
	C242.630096,948.012390 242.553543,955.651855 242.737030,963.281677 
	C242.832382,967.246948 241.527420,968.938232 237.352356,969.047119 
	C226.073242,969.341248 226.002319,969.415588 225.998489,957.995178 
	C225.997208,954.163452 225.998184,950.331665 225.998154,946.000000 
z"/>
<path fill="#3B3F3A" opacity="1.000000" stroke="none" 
	d="
M207.964813,967.109009 
	C195.616669,972.721130 184.238907,970.819092 176.116150,962.009521 
	C169.020905,954.314392 167.680725,941.331909 172.988525,931.710083 
	C178.231049,922.206604 189.891006,917.117859 200.699310,919.616272 
	C212.286789,922.294800 219.618378,930.824829 220.276886,942.379395 
	C220.871155,952.806519 217.585495,961.335754 207.964813,967.109009 
z"/>
<path fill="#3B3F3A" opacity="1.000000" stroke="none" 
	d="
M296.321655,965.749878 
	C285.247986,956.509705 282.569122,942.684631 289.344360,931.090759 
	C295.319611,920.865906 308.752655,916.217102 320.251068,920.655029 
	C329.147308,924.088623 334.848877,930.471619 336.046295,940.121094 
	C337.362244,950.725891 334.985840,960.227844 325.322021,966.181641 
	C315.902374,971.984863 306.142456,971.984009 296.321655,965.749878 
z"/>
<path fill="#3B3F3A" opacity="1.000000" stroke="none" 
	d="
M951.652344,919.055176 
	C976.645325,922.814941 978.771667,948.864380 969.115234,961.125000 
	C963.074463,968.794922 951.159424,972.386169 941.021790,969.154968 
	C931.431030,966.098083 924.423401,957.102783 923.987061,947.288208 
	C923.207703,929.760803 933.752075,918.814514 951.652344,919.055176 
z"/>
<path fill="#3A3938" opacity="1.000000" stroke="none" 
	d="
M739.135193,930.991821 
	C740.174622,935.370911 741.475647,939.364807 741.824890,943.440186 
	C742.189941,947.700623 740.116821,950.245972 735.252380,950.058289 
	C729.099854,949.820923 722.930481,949.983032 716.769043,950.041077 
	C715.019836,950.057556 713.272827,950.311890 711.169067,950.486694 
	C712.168823,955.015015 715.115356,956.574890 718.471619,956.689148 
	C722.400574,956.822937 726.531616,956.682373 730.265259,955.596252 
	C736.183777,953.874451 736.447998,958.790771 738.199036,961.688049 
	C740.406555,965.340759 737.002258,966.324158 734.648315,967.248901 
	C724.064514,971.406677 713.549988,971.896484 703.467407,965.766663 
	C694.865051,960.536743 690.946411,949.800476 693.315308,938.547913 
	C695.359131,928.838989 703.637268,921.097961 713.954102,919.248108 
	C724.558716,917.346619 733.601135,921.463806 739.135193,930.991821 
z"/>
<path fill="#393737" opacity="1.000000" stroke="none" 
	d="
M795.247925,927.885376 
	C796.633667,932.802979 798.408691,937.362427 798.836609,942.044922 
	C799.424622,948.478271 799.201660,955.015015 798.888367,961.486267 
	C798.772766,963.874207 797.543945,968.155518 796.599976,968.218262 
	C792.555359,968.486877 788.417480,967.567993 784.341675,966.908264 
	C783.747864,966.812134 783.306213,965.775452 783.573914,966.089905 
	C777.201721,967.510803 771.690430,969.454102 766.076416,969.819397 
	C758.226013,970.330322 752.644043,965.280762 751.272705,957.852600 
	C750.043030,951.192200 753.896423,943.956970 760.647034,941.437805 
	C764.962158,939.827454 769.611694,939.114685 774.109131,937.990601 
	C776.045227,937.506714 777.975647,937.000183 780.609314,936.324158 
	C776.763245,931.737366 772.601746,933.233398 768.845459,933.250671 
	C767.398010,933.257263 765.939758,933.901184 764.510376,934.333862 
	C758.567810,936.132935 755.174500,934.092896 754.142944,927.794739 
	C753.973999,926.763062 754.595581,925.049805 755.419800,924.494507 
	C762.347595,919.827087 780.971069,915.257324 791.309753,923.640442 
	C792.702087,924.769348 793.801636,926.259277 795.247925,927.885376 
M772.790894,948.970398 
	C770.286926,949.926575 767.191467,950.828613 768.197998,954.280823 
	C769.273743,957.970947 772.707886,957.149048 775.356567,956.508240 
	C778.357056,955.782227 782.382874,954.768860 781.460815,950.752869 
	C780.453308,946.365295 776.522400,948.275696 772.790894,948.970398 
z"/>
<path fill="#393737" opacity="1.000000" stroke="none" 
	d="
M984.174927,965.462524 
	C984.075928,952.526611 983.889404,940.027222 984.131653,927.536133 
	C984.178772,925.107300 985.221130,921.594055 986.981506,920.531921 
	C990.660889,918.311707 996.851440,920.286316 998.941345,923.262695 
	C999.218323,923.657104 999.530640,924.026794 999.887146,924.485962 
	C1003.235107,922.955750 1006.428589,921.143311 1009.845947,919.999390 
	C1020.586975,916.403931 1030.192627,922.501831 1030.787842,933.731201 
	C1031.325073,943.867249 1030.937012,954.052551 1030.950439,964.216125 
	C1030.954468,967.232422 1029.534790,968.901001 1026.419556,968.930481 
	C1026.253174,968.932068 1026.086548,968.942749 1025.920410,968.955566 
	C1014.475586,969.836365 1014.006592,969.404419 1013.996521,958.060974 
	C1013.991455,952.395630 1014.019348,946.729492 1013.937805,941.065125 
	C1013.882507,937.221497 1012.918396,934.032166 1008.088684,934.122498 
	C1003.631409,934.205872 1001.168762,936.563232 1001.072510,941.358215 
	C1000.928650,948.520752 1000.861145,955.690918 1001.033264,962.851379 
	C1001.142151,967.379517 999.215576,969.541382 994.787537,968.927368 
	C991.162476,968.424622 986.541687,971.067261 984.174927,965.462524 
z"/>
<path fill="#393737" opacity="1.000000" stroke="none" 
	d="
M493.001831,950.004150 
	C492.986237,954.996399 492.943848,959.490356 492.963989,963.984009 
	C492.978577,967.240906 491.506012,968.908813 488.160767,968.959717 
	C473.167511,969.187744 475.105591,969.525940 475.004639,956.827515 
	C474.959625,951.168762 474.895294,945.507629 475.007629,939.850952 
	C475.084686,935.968872 473.651825,933.843689 469.502625,934.000244 
	C466.115601,934.128052 463.060272,933.758972 463.023712,929.173340 
	C462.990906,925.056458 462.534424,920.875671 468.509094,920.593811 
	C472.957306,920.383911 475.582062,918.547424 476.584991,913.614258 
	C477.965363,906.824890 483.028290,902.349243 489.618561,901.334045 
	C495.878479,900.369812 502.428955,900.991028 508.826233,901.358276 
	C511.626587,901.519165 513.523132,903.494995 512.222839,906.625793 
	C511.003448,909.561951 512.641174,914.685547 506.555298,914.174561 
	C503.296692,913.900940 499.949219,913.857666 496.733704,914.332458 
	C495.552032,914.506958 494.634766,916.472107 493.596924,917.620361 
	C494.896790,918.393555 496.143219,919.289185 497.518646,919.889160 
	C498.224304,920.196960 499.160339,919.978516 499.992310,919.994629 
	C507.511444,920.140137 510.001007,923.450439 507.653076,930.772095 
	C507.230499,932.089844 505.285095,933.303772 503.790344,933.790710 
	C502.122955,934.333801 500.164886,934.077271 498.338074,934.018982 
	C494.492767,933.896240 492.917786,935.802917 493.012421,939.519592 
	C493.097168,942.846069 493.012024,946.176819 493.001831,950.004150 
z"/>
<path fill="#393737" opacity="1.000000" stroke="none" 
	d="
M616.535400,968.849426 
	C597.022705,973.465637 581.934631,965.657898 577.995117,947.570251 
	C574.142395,929.881165 578.140259,914.666443 595.473206,906.955200 
	C605.221741,902.618164 614.912537,903.602478 623.853455,909.901062 
	C626.513794,911.775208 626.927551,913.555420 624.574646,915.953552 
	C623.300354,917.252319 622.514465,919.214600 621.040222,920.082275 
	C619.488953,920.995178 617.059143,921.784851 615.564758,921.205627 
	C604.677551,916.985596 597.238770,920.573914 594.940247,932.187927 
	C594.134888,936.257263 594.362610,940.870972 595.412109,944.899109 
	C597.848755,954.251099 606.203979,957.570435 615.059326,953.488159 
	C616.710022,952.727173 619.540527,951.747986 620.368347,952.491943 
	C623.017212,954.872498 625.107300,957.933228 627.072998,960.952881 
	C627.368652,961.407104 626.092468,963.410461 625.118530,964.063660 
	C622.513000,965.811157 619.676575,967.214233 616.535400,968.849426 
z"/>
<path fill="#393737" opacity="1.000000" stroke="none" 
	d="
M523.595215,937.445007 
	C521.612610,932.996643 519.814636,928.881104 517.936890,924.802307 
	C516.511658,921.706543 517.171204,919.983398 520.836121,920.030029 
	C521.168823,920.034241 521.501892,920.020508 521.834595,920.009094 
	C532.619751,919.640320 532.689087,919.614441 536.396729,929.602600 
	C538.991943,936.593933 541.365356,943.667480 544.296631,952.009888 
	C546.025818,946.559814 547.428650,942.141479 548.829407,937.722534 
	C550.286743,933.125427 551.608459,928.479614 553.240417,923.945435 
	C554.555420,920.291931 566.121399,918.072815 568.496277,921.032166 
	C569.117065,921.805786 569.044006,923.595398 568.634338,924.667969 
	C562.403931,940.977905 556.314819,957.349365 549.658752,973.486206 
	C545.527710,983.501282 537.514465,988.219116 526.585632,987.088928 
	C524.664673,986.890259 521.816223,985.723022 521.259216,984.282593 
	C519.987122,980.992920 523.146912,974.936951 525.758362,974.230713 
	C526.711182,973.973022 527.744934,974.032776 528.725586,973.856995 
	C534.773743,972.772827 537.018616,969.088562 534.718323,963.483948 
	C531.183105,954.870300 527.414917,946.352234 523.595215,937.445007 
z"/>
<path fill="#393737" opacity="1.000000" stroke="none" 
	d="
M814.542603,934.004150 
	C810.502380,934.180176 807.998413,933.208252 807.992676,928.830505 
	C807.987427,924.803833 807.800842,920.604187 813.265259,920.529358 
	C819.237976,920.447388 821.097290,917.427734 821.641052,911.951599 
	C822.176392,906.561035 831.633118,903.270508 835.396545,907.121826 
	C836.734985,908.491577 836.977600,911.394714 836.915833,913.575073 
	C836.781921,918.301880 838.706970,920.388550 843.427429,920.007263 
	C845.080017,919.873718 846.753357,919.987549 848.417114,920.003418 
	C855.427551,920.070129 855.921631,920.801880 856.057495,927.749207 
	C856.153259,932.642700 853.967468,934.088623 849.411133,934.050293 
	C836.331726,933.940125 836.951721,932.647644 837.014648,946.419983 
	C837.053711,954.974976 840.712830,958.011902 849.229309,956.656189 
	C854.859314,955.760010 855.164246,956.209045 856.798950,962.742310 
	C857.960999,967.386658 855.616760,968.964722 851.779053,969.198853 
	C846.165222,969.541321 840.438416,970.224365 834.924255,969.503845 
	C826.363220,968.385254 820.846802,961.830200 820.103882,953.093689 
	C819.696960,948.307739 819.523682,943.486511 819.559937,938.683594 
	C819.585327,935.322205 818.442993,933.627563 814.542603,934.004150 
z"/>
<path fill="#393737" opacity="1.000000" stroke="none" 
	d="
M1087.690674,947.669373 
	C1091.415283,959.073853 1085.155151,967.520813 1072.173462,969.904358 
	C1062.154053,971.743958 1053.121704,969.124512 1044.180298,965.111084 
	C1040.765015,963.578003 1040.800171,961.768005 1042.630371,958.934082 
	C1046.616333,952.762207 1046.834106,952.858154 1053.628052,955.072937 
	C1057.994995,956.496399 1062.670776,957.118164 1067.260620,957.614929 
	C1068.492432,957.748291 1069.916260,956.107971 1071.251953,955.281860 
	C1070.120483,954.260925 1069.154785,952.764587 1067.828613,952.302673 
	C1062.505615,950.448914 1056.869629,949.376099 1051.735229,947.131958 
	C1046.768799,944.961304 1043.448975,940.638184 1043.384277,935.015991 
	C1043.317505,929.228638 1046.433594,924.842834 1051.665649,922.367188 
	C1054.490967,921.030396 1057.562500,919.969971 1060.635620,919.446838 
	C1069.135864,917.999756 1077.155273,919.659851 1084.710205,923.849243 
	C1087.446899,925.366882 1087.610229,926.989014 1085.965088,929.468079 
	C1081.996826,935.447266 1081.670532,935.494141 1074.666992,933.465942 
	C1071.680908,932.601196 1068.480591,932.245422 1065.364990,932.168152 
	C1064.043701,932.135376 1062.690063,933.413391 1061.351074,934.095642 
	C1062.441162,934.944519 1063.409546,936.179504 1064.644531,936.568604 
	C1068.129639,937.666565 1071.994507,937.864990 1075.209229,939.439819 
	C1079.552979,941.567871 1083.430176,944.648438 1087.690674,947.669373 
z"/>
<path fill="#393737" opacity="1.000000" stroke="none" 
	d="
M640.708801,967.075195 
	C640.353699,952.562195 640.109009,938.410889 640.267944,924.264160 
	C640.283691,922.861816 642.705383,920.391052 644.111511,920.316284 
	C647.590271,920.131348 652.049316,918.162109 654.114075,923.175537 
	C654.784729,924.803955 655.144104,926.560486 655.831909,928.888000 
	C661.251160,922.421021 667.554138,918.684998 675.590454,919.112732 
	C678.752686,919.281067 683.331909,918.267883 683.103027,923.861511 
	C682.775513,931.866333 680.460999,934.588135 674.823975,934.132324 
	C664.175842,933.271301 657.123657,939.598450 657.015381,950.142761 
	C656.970886,954.475464 656.863342,958.813416 657.016541,963.140686 
	C657.169617,967.462952 655.179810,969.392029 650.997314,968.948792 
	C647.626892,968.591675 644.286377,967.952393 640.708801,967.075195 
z"/>
<path fill="#393737" opacity="1.000000" stroke="none" 
	d="
M441.001831,934.019531 
	C440.995605,943.999329 440.898773,953.483643 441.024872,962.964966 
	C441.080231,967.127319 439.514496,968.929321 435.189026,969.046753 
	C422.997101,969.377563 423.003876,969.506409 422.996826,957.361511 
	C422.993347,951.372253 422.908203,945.382080 422.987793,939.394043 
	C423.038330,935.593201 421.293579,933.874695 417.538330,934.022339 
	C416.043854,934.081116 414.544312,934.010925 413.047058,933.999573 
	C405.642395,933.943604 402.594421,929.648926 405.457581,922.800598 
	C405.988831,921.529907 408.173737,920.225098 409.629578,920.185303 
	C418.439911,919.944702 427.260162,920.062622 436.077118,920.069824 
	C439.375641,920.072510 440.932037,921.793152 440.940155,925.038757 
	C440.947205,927.866760 440.980255,930.694824 441.001831,934.019531 
z"/>
<path fill="#393737" opacity="1.000000" stroke="none" 
	d="
M905.001526,932.043823 
	C904.995300,942.685974 904.901733,952.836060 905.024963,962.983521 
	C905.075745,967.160828 903.481201,968.932129 899.169983,969.046631 
	C886.996826,969.369995 887.002136,969.497864 886.997559,957.341431 
	C886.995361,951.518250 886.865051,945.691895 887.016541,939.872864 
	C887.128540,935.575928 885.224731,933.736694 881.017700,934.006714 
	C879.692627,934.091675 878.356628,934.009155 877.025635,933.999084 
	C869.648743,933.943481 866.579224,929.592957 869.464111,922.779968 
	C870.001343,921.511292 872.191223,920.222351 873.651978,920.182800 
	C882.462891,919.944702 891.283447,920.062500 900.100769,920.072144 
	C903.411011,920.075806 904.936401,921.828430 904.941406,925.062744 
	C904.944702,927.225403 904.980347,929.388000 905.001526,932.043823 
z"/>
<path fill="#393737" opacity="1.000000" stroke="none" 
	d="
M892.701599,894.384216 
	C900.622620,893.890442 904.805237,896.345276 905.787781,901.738708 
	C906.881104,907.740356 903.926270,912.267639 898.007202,913.659546 
	C892.577209,914.936462 886.914917,912.086731 885.444641,907.337097 
	C883.648132,901.533447 886.093811,896.953918 892.701599,894.384216 
z"/>
<path fill="#393737" opacity="1.000000" stroke="none" 
	d="
M435.741394,913.035400 
	C427.822723,914.893250 422.345337,912.239563 421.216583,906.323547 
	C420.136810,900.664124 422.685455,896.197998 427.888672,894.631836 
	C433.375702,892.980225 439.083496,895.126465 441.122620,899.607971 
	C443.486511,904.803284 441.662354,909.630249 435.741394,913.035400 
z"/>
<path fill="#425295" opacity="1.000000" stroke="none" 
	d="
M392.265442,968.564331 
	C392.043549,946.610291 392.039215,924.310974 392.042328,901.550720 
	C392.358582,902.527222 392.932068,903.963806 392.936279,905.402161 
	C392.994293,925.194519 392.982086,944.987122 392.951874,964.779602 
	C392.950134,965.926392 392.646271,967.072571 392.265442,968.564331 
z"/>
<path fill="#425295" opacity="1.000000" stroke="none" 
	d="
M113.762405,906.455933 
	C113.986107,926.732666 113.988922,947.350464 113.987518,968.426758 
	C113.663620,967.452393 113.070663,966.020508 113.065765,964.586670 
	C113.003853,946.467468 113.017387,928.348022 113.049873,910.228699 
	C113.051918,909.084534 113.370308,907.940918 113.762405,906.455933 
z"/>
<path fill="#476F4F" opacity="1.000000" stroke="none" 
	d="
M773.170166,948.857971 
	C776.522400,948.275696 780.453308,946.365295 781.460815,950.752869 
	C782.382874,954.768860 778.357056,955.782227 775.356567,956.508240 
	C772.707886,957.149048 769.273743,957.970947 768.197998,954.280823 
	C767.191467,950.828613 770.286926,949.926575 773.170166,948.857971 
z"/>
</svg>